<svg xmlns="http://www.w3.org/2000/svg" width="760" height="344" viewBox="0 0 760 344" role="img" aria-label="Three kernels, one mistake, 100 MNIST steps"><rect width="760" height="344" fill="#1a1a19"/><text x="20.0" y="26.0" font-family="system-ui, -apple-system, "Segoe UI", sans-serif" font-size="15" fill="#ffffff" text-anchor="start" font-weight="600">Three kernels, one mistake, 100 MNIST steps</text><text x="20.0" y="46.0" font-family="system-ui, -apple-system, "Segoe UI", sans-serif" font-size="12" fill="#898781" text-anchor="start" font-weight="400">Each drew its parallelism from the size of the output, not the amount of work.</text><line x1="210.0" y1="88" x2="210.0" y2="314" stroke="#2c2c2a" stroke-width="1"/><text x="210.0" y="330.0" font-family="system-ui, -apple-system, "Segoe UI", sans-serif" font-size="11" fill="#898781" text-anchor="middle" font-weight="400" style="font-variant-numeric:tabular-nums">0 ms</text><line x1="352.9" y1="88" x2="352.9" y2="314" stroke="#2c2c2a" stroke-width="1"/><text x="352.9" y="330.0" font-family="system-ui, -apple-system, "Segoe UI", sans-serif" font-size="11" fill="#898781" text-anchor="middle" font-weight="400" style="font-variant-numeric:tabular-nums">200 ms</text><line x1="495.7" y1="88" x2="495.7" y2="314" stroke="#2c2c2a" stroke-width="1"/><text x="495.7" y="330.0" font-family="system-ui, -apple-system, "Segoe UI", sans-serif" font-size="11" fill="#898781" text-anchor="middle" font-weight="400" style="font-variant-numeric:tabular-nums">400 ms</text><line x1="210" y1="88" x2="210" y2="314" stroke="#383835" stroke-width="1"/><path d="M210.0,102.0 h377.6 a4,4 0 0 1 4,4 v14 a4,4 0 0 1 -4,4 h-377.6 z" fill="#3987e5"/><text x="599.6" y="117.0" font-family="system-ui, -apple-system, "Segoe UI", sans-serif" font-size="12" fill="#c3c2b7" text-anchor="start" font-weight="400" style="font-variant-numeric:tabular-nums">534.3 ms</text><path d="M210.0,126.0 h0.2 a4,4 0 0 1 4,4 v14 a4,4 0 0 1 -4,4 h-0.2 z" fill="#d95926"/><text x="222.2" y="141.0" font-family="system-ui, -apple-system, "Segoe UI", sans-serif" font-size="12" fill="#c3c2b7" text-anchor="start" font-weight="400" style="font-variant-numeric:tabular-nums">5.9 ms</text><text x="20.0" y="117.0" font-family="system-ui, -apple-system, "Segoe UI", sans-serif" font-size="12" fill="#c3c2b7" text-anchor="start" font-weight="400">sum_over_axis</text><text x="20.0" y="134.0" font-family="system-ui, -apple-system, "Segoe UI", sans-serif" font-size="11" fill="#898781" text-anchor="start" font-weight="400">90× faster</text><path d="M210.0,176.0 h344.5 a4,4 0 0 1 4,4 v14 a4,4 0 0 1 -4,4 h-344.5 z" fill="#3987e5"/><text x="566.5" y="191.0" font-family="system-ui, -apple-system, "Segoe UI", sans-serif" font-size="12" fill="#c3c2b7" text-anchor="start" font-weight="400" style="font-variant-numeric:tabular-nums">487.9 ms</text><path d="M210.0,200.0 h40.5 a4,4 0 0 1 4,4 v14 a4,4 0 0 1 -4,4 h-40.5 z" fill="#d95926"/><text x="262.5" y="215.0" font-family="system-ui, -apple-system, "Segoe UI", sans-serif" font-size="12" fill="#c3c2b7" text-anchor="start" font-weight="400" style="font-variant-numeric:tabular-nums">62.3 ms</text><text x="20.0" y="191.0" font-family="system-ui, -apple-system, "Segoe UI", sans-serif" font-size="12" fill="#c3c2b7" text-anchor="start" font-weight="400">matmul_tiled</text><text x="20.0" y="208.0" font-family="system-ui, -apple-system, "Segoe UI", sans-serif" font-size="11" fill="#898781" text-anchor="start" font-weight="400">7.9× faster</text><path d="M210.0,250.0 h107.2 a4,4 0 0 1 4,4 v14 a4,4 0 0 1 -4,4 h-107.2 z" fill="#3987e5"/><text x="329.2" y="265.0" font-family="system-ui, -apple-system, "Segoe UI", sans-serif" font-size="12" fill="#c3c2b7" text-anchor="start" font-weight="400" style="font-variant-numeric:tabular-nums">155.7 ms</text><path d="M210.0,274.0 h3.0 a4,4 0 0 1 4,4 v14 a4,4 0 0 1 -4,4 h-3.0 z" fill="#d95926"/><text x="225.0" y="289.0" font-family="system-ui, -apple-system, "Segoe UI", sans-serif" font-size="12" fill="#c3c2b7" text-anchor="start" font-weight="400" style="font-variant-numeric:tabular-nums">9.8 ms</text><text x="20.0" y="265.0" font-family="system-ui, -apple-system, "Segoe UI", sans-serif" font-size="12" fill="#c3c2b7" text-anchor="start" font-weight="400">permute_gather</text><text x="20.0" y="282.0" font-family="system-ui, -apple-system, "Segoe UI", sans-serif" font-size="11" fill="#898781" text-anchor="start" font-weight="400">15.7× faster</text><rect x="210" y="62" width="10" height="10" rx="2" fill="#3987e5"/><text x="225.0" y="70.0" font-family="system-ui, -apple-system, "Segoe UI", sans-serif" font-size="12" fill="#c3c2b7" text-anchor="start" font-weight="400">before</text><rect x="286.6" y="62" width="10" height="10" rx="2" fill="#d95926"/><text x="301.6" y="70.0" font-family="system-ui, -apple-system, "Segoe UI", sans-serif" font-size="12" fill="#c3c2b7" text-anchor="start" font-weight="400">after</text></svg>