<svg xmlns="http://www.w3.org/2000/svg" width="760" height="270" viewBox="0 0 760 270" role="img" aria-label="MNIST, same model and data, same machine"><rect width="760" height="270" fill="#1a1a19"/><text x="20.0" y="26.0" font-family="system-ui, -apple-system, 'Segoe UI', sans-serif" font-size="15" fill="#ffffff" text-anchor="start" font-weight="600">MNIST, same model and data, same machine</text><text x="20.0" y="46.0" font-family="system-ui, -apple-system, 'Segoe UI', sans-serif" font-size="12" fill="#898781" text-anchor="start" font-weight="400">Ryzen 5 5500 (6 cores / 12 threads) + RTX 3060 Ti. 2 000 images, 12 epochs, fp32. Lower is better.</text><line x1="210.0" y1="88" x2="210.0" y2="240" stroke="#2c2c2a" stroke-width="1"/><text x="210.0" y="256.0" font-family="system-ui, -apple-system, 'Segoe UI', sans-serif" font-size="11" fill="#898781" text-anchor="middle" font-weight="400" style="font-variant-numeric:tabular-nums">0 s</text><line x1="325.0" y1="88" x2="325.0" y2="240" stroke="#2c2c2a" stroke-width="1"/><text x="325.0" y="256.0" font-family="system-ui, -apple-system, 'Segoe UI', sans-serif" font-size="11" fill="#898781" text-anchor="middle" font-weight="400" style="font-variant-numeric:tabular-nums">5 s</text><line x1="440.0" y1="88" x2="440.0" y2="240" stroke="#2c2c2a" stroke-width="1"/><text x="440.0" y="256.0" font-family="system-ui, -apple-system, 'Segoe UI', sans-serif" font-size="11" fill="#898781" text-anchor="middle" font-weight="400" style="font-variant-numeric:tabular-nums">10 s</text><line x1="555.0" y1="88" x2="555.0" y2="240" stroke="#2c2c2a" stroke-width="1"/><text x="555.0" y="256.0" font-family="system-ui, -apple-system, 'Segoe UI', sans-serif" font-size="11" fill="#898781" text-anchor="middle" font-weight="400" style="font-variant-numeric:tabular-nums">15 s</text><line x1="670.0" y1="88" x2="670.0" y2="240" stroke="#2c2c2a" stroke-width="1"/><text x="670.0" y="256.0" font-family="system-ui, -apple-system, 'Segoe UI', sans-serif" font-size="11" fill="#898781" text-anchor="middle" font-weight="400" style="font-variant-numeric:tabular-nums">20 s</text><line x1="210" y1="88" x2="210" y2="240" stroke="#383835" stroke-width="1"/><text x="20.0" y="118.0" font-family="system-ui, -apple-system, 'Segoe UI', sans-serif" font-size="12" fill="#c3c2b7" text-anchor="start" font-weight="400">CPU</text><text x="20.0" y="135.0" font-family="system-ui, -apple-system, 'Segoe UI', sans-serif" font-size="11" fill="#898781" text-anchor="start" font-weight="400">engine 12 threads, PyTorch 6</text><path d="M210.0,102.0 h400.8 a4,4 0 0 1 4,4 v14 a4,4 0 0 1 -4,4 h-400.8 z" fill="#3987e5"/><text x="622.8" y="117.0" font-family="system-ui, -apple-system, 'Segoe UI', sans-serif" font-size="12" fill="#c3c2b7" text-anchor="start" font-weight="600" style="font-variant-numeric:tabular-nums">17.60 s</text><path d="M210.0,126.0 h136.3 a4,4 0 0 1 4,4 v14 a4,4 0 0 1 -4,4 h-136.3 z" fill="#d95926"/><text x="358.3" y="141.0" font-family="system-ui, -apple-system, 'Segoe UI', sans-serif" font-size="12" fill="#c3c2b7" text-anchor="start" font-weight="400" style="font-variant-numeric:tabular-nums">6.10 s</text><text x="20.0" y="192.0" font-family="system-ui, -apple-system, 'Segoe UI', sans-serif" font-size="12" fill="#c3c2b7" text-anchor="start" font-weight="400">CUDA</text><text x="20.0" y="209.0" font-family="system-ui, -apple-system, 'Segoe UI', sans-serif" font-size="11" fill="#898781" text-anchor="start" font-weight="400">RTX 3060 Ti</text><path d="M210.0,176.0 h101.8 a4,4 0 0 1 4,4 v14 a4,4 0 0 1 -4,4 h-101.8 z" fill="#3987e5"/><text x="323.8" y="191.0" font-family="system-ui, -apple-system, 'Segoe UI', sans-serif" font-size="12" fill="#c3c2b7" text-anchor="start" font-weight="600" style="font-variant-numeric:tabular-nums">4.60 s</text><path d="M210.0,200.0 h58.1 a4,4 0 0 1 4,4 v14 a4,4 0 0 1 -4,4 h-58.1 z" fill="#d95926"/><text x="280.1" y="215.0" font-family="system-ui, -apple-system, 'Segoe UI', sans-serif" font-size="12" fill="#c3c2b7" text-anchor="start" font-weight="400" style="font-variant-numeric:tabular-nums">2.70 s</text><rect x="210" y="62" width="10" height="10" rx="2" fill="#3987e5"/><text x="225.0" y="70.0" font-family="system-ui, -apple-system, 'Segoe UI', sans-serif" font-size="12" fill="#c3c2b7" text-anchor="start" font-weight="400">this engine</text><rect x="319.6" y="62" width="10" height="10" rx="2" fill="#d95926"/><text x="334.6" y="70.0" font-family="system-ui, -apple-system, 'Segoe UI', sans-serif" font-size="12" fill="#c3c2b7" text-anchor="start" font-weight="400">PyTorch 2.11 + cuDNN</text></svg>